<svg aria-hidden="true" style="position: absolute; width: 0; height: 0; overflow: hidden;" version="1.1" xmlns="http://www.w3.org/2000/svg" xmlns:xlink="http://www.w3.org/1999/xlink">
<defs>
<symbol id="hamburger" viewBox="0 0 47 32">
    <path stroke="#111111" stroke-width="4.3636" stroke-miterlimit="4" stroke-linecap="round" 
    stroke-linejoin="round" d="M1.96 29.154h42.965M1.96 15.615h42.965M1.96 2.077h42.965"/>
    </symbol>
    <symbol id="icon-header-btn-close" viewBox="0 0 32 32">
<path fill="none" stroke="#fff" style="stroke: var(--color1, #fff)" stroke-linejoin="round" stroke-linecap="round" stroke-miterlimit="4" stroke-width="4.5714" d="M29.333 2.667l-26.665 26.665M2.667 2.667l26.665 26.665"></path>
</symbol>
<symbol id="icon-chocolate-icon" viewBox="0 0 32 32">
<path d="M3.944 20.076l10.777-17.424 0.64-0.674 8.236 5.491 0.056 3.314 2.010 3.28-8.88 14.077-12.839-8.063z"></path>
<path stroke-linejoin="round" stroke-linecap="round" stroke-miterlimit="4" stroke-width="2.6667" d="M21.635 23.88l-14.185-8.864M11.361 8.599l14.185 8.864M10.63 25.864l11.736-19.25M27.176 14.789c-3.040-1.899-4.234-3.384-2.278-6.592l-9.626-6.015-11.736 19.25 14.186 8.864 9.454-15.507z"></path>
</symbol>
<symbol id="icon-chocolate-icon-adv" viewBox="0 0 32 32">
<path d="M13.597 0.456l8.306 8.316 0.088-0.088c0.174-0.17 0.407-0.267 0.65-0.27s0.478 0.089 0.656 0.255l0.963 0.963c0.337 0.337 0.348 0.85 0.092 1.207l-0.004 0.008-0.158 0.212 6.797 6.797c0.607 0.607 0.607 1.578 0 2.185l-10.406 10.406c-0.607 0.607-1.578 0.607-2.185 0l-4.907-4.907c-0.081 0.103-0.184 0.187-0.3 0.247s-0.244 0.095-0.375 0.103c-0.131 0.007-0.262-0.013-0.384-0.060s-0.234-0.119-0.326-0.212l-2.869-2.869c-0.17-0.174-0.267-0.407-0.27-0.65s0.089-0.478 0.255-0.656l0.007-0.008 0.085-0.084-8.306-8.306c-0.607-0.607-0.607-1.578 0-2.185l10.405-10.405c0.607-0.607 1.578-0.607 2.185 0v0.001zM20.86 9.813l-1.938-1.937c-0.061-0.063-0.134-0.113-0.214-0.147s-0.167-0.052-0.255-0.052c-0.087 0-0.174 0.018-0.255 0.052s-0.154 0.084-0.214 0.147l-3.95 3.95c-0.063 0.062-0.112 0.136-0.146 0.217s-0.051 0.169-0.051 0.257 0.017 0.176 0.051 0.257c0.034 0.081 0.084 0.155 0.146 0.217l1.93 1.93 0.673-0.673-1.727-1.727 3.542-3.553 1.731 1.737 0.676-0.676zM15.258 15.41l-1.935-1.935c-0.061-0.063-0.134-0.113-0.214-0.147s-0.167-0.052-0.255-0.052c-0.088 0-0.174 0.018-0.255 0.052s-0.153 0.084-0.214 0.147l-3.961 3.961c-0.265 0.254-0.265 0.673 0 0.938l1.933 1.933 0.68-0.68-1.732-1.726 3.553-3.542 1.726 1.725 0.675-0.674zM8.079 6.834l3.95 3.95c0.265 0.265 0.684 0.265 0.938-0.011l3.95-3.95c0.063-0.060 0.113-0.132 0.147-0.211s0.052-0.165 0.052-0.252h0.011c0-0.166-0.066-0.342-0.199-0.474l-3.95-3.95c-0.062-0.063-0.136-0.113-0.217-0.147s-0.169-0.051-0.257-0.051c-0.088 0-0.176 0.018-0.257 0.051s-0.155 0.084-0.217 0.147l-3.95 3.961c-0.265 0.254-0.265 0.673 0 0.938zM2.485 12.428l3.95 3.95c0.265 0.265 0.684 0.265 0.938 0l3.95-3.95c0.064-0.061 0.115-0.135 0.149-0.216s0.051-0.17 0.050-0.258h0.011c0-0.177-0.066-0.342-0.199-0.474l-3.95-3.95c-0.061-0.063-0.134-0.113-0.214-0.147s-0.167-0.052-0.255-0.052c-0.087 0-0.174 0.018-0.255 0.052s-0.153 0.084-0.214 0.147l-3.961 3.961c-0.265 0.254-0.265 0.673 0 0.938zM10.135 22.088l2.606 2.607 10.633-14.389-0.723-0.723-12.516 12.504z"></path>
<path d="M13.597 0.456l8.306 8.316 0.088-0.088c0.174-0.17 0.407-0.267 0.65-0.27s0.478 0.089 0.656 0.255l0.963 0.963c0.337 0.337 0.348 0.85 0.092 1.207l-0.004 0.008-0.158 0.212 6.797 6.797c0.607 0.607 0.607 1.578 0 2.185l-10.406 10.406c-0.607 0.607-1.578 0.607-2.185 0l-4.907-4.907c-0.081 0.103-0.184 0.187-0.3 0.247s-0.244 0.095-0.375 0.103c-0.131 0.007-0.262-0.013-0.384-0.060s-0.234-0.119-0.326-0.212l-2.869-2.869c-0.17-0.174-0.267-0.407-0.27-0.65s0.089-0.478 0.255-0.656l0.007-0.008 0.085-0.084-8.306-8.306c-0.607-0.607-0.607-1.578 0-2.185l10.405-10.405c0.607-0.607 1.578-0.607 2.185 0v0.001zM20.86 9.813l-1.938-1.937c-0.061-0.063-0.134-0.113-0.214-0.147s-0.167-0.052-0.255-0.052c-0.087 0-0.174 0.018-0.255 0.052s-0.154 0.084-0.214 0.147l-3.95 3.95c-0.063 0.062-0.112 0.136-0.146 0.217s-0.051 0.169-0.051 0.257 0.017 0.176 0.051 0.257c0.034 0.081 0.084 0.155 0.146 0.217l1.93 1.93 0.673-0.673-1.727-1.727 3.542-3.553 1.731 1.737 0.676-0.676zM15.258 15.41l-1.935-1.935c-0.061-0.063-0.134-0.113-0.214-0.147s-0.167-0.052-0.255-0.052c-0.088 0-0.174 0.018-0.255 0.052s-0.153 0.084-0.214 0.147l-3.961 3.961c-0.265 0.254-0.265 0.673 0 0.938l1.933 1.933 0.68-0.68-1.732-1.726 3.553-3.542 1.726 1.725 0.675-0.674zM8.079 6.834l3.95 3.95c0.265 0.265 0.684 0.265 0.938-0.011l3.95-3.95c0.063-0.060 0.113-0.132 0.147-0.211s0.052-0.165 0.052-0.252h0.011c0-0.166-0.066-0.342-0.199-0.474l-3.95-3.95c-0.062-0.063-0.136-0.113-0.217-0.147s-0.169-0.051-0.257-0.051c-0.088 0-0.176 0.018-0.257 0.051s-0.155 0.084-0.217 0.147l-3.95 3.961c-0.265 0.254-0.265 0.673 0 0.938zM2.485 12.428l3.95 3.95c0.265 0.265 0.684 0.265 0.938 0l3.95-3.95c0.064-0.061 0.115-0.135 0.149-0.216s0.051-0.17 0.050-0.258h0.011c0-0.177-0.066-0.342-0.199-0.474l-3.95-3.95c-0.061-0.063-0.134-0.113-0.214-0.147s-0.167-0.052-0.255-0.052c-0.087 0-0.174 0.018-0.255 0.052s-0.153 0.084-0.214 0.147l-3.961 3.961c-0.265 0.254-0.265 0.673 0 0.938zM10.135 22.088l2.606 2.607 10.633-14.389-0.723-0.723-12.516 12.504z"></path>
</symbol>
<symbol id="icon-close-icon" viewBox="0 0 32 32">
<path stroke-linejoin="round" stroke-linecap="round" stroke-miterlimit="4" stroke-width="2.2857" d="M22.667 9.333l-13.333 13.333M9.333 9.333l13.333 13.333"></path>
</symbol>
<symbol id="icon-coin-icon-adv" viewBox="0 0 32 32">
<path d="M16 2.667c-7.333 0-13.333 6-13.333 13.333s6 13.333 13.333 13.333c7.333 0 13.333-6 13.333-13.333s-6-13.333-13.333-13.333zM16 26.667c-5.867 0-10.667-4.8-10.667-10.667s4.8-10.667 10.667-10.667c5.867 0 10.667 4.8 10.667 10.667s-4.8 10.667-10.667 10.667z"></path>
<path d="M17.733 14.667h-3.467c-0.667 0-1.2-0.533-1.2-1.2s0.533-1.2 1.2-1.2h4.933c0.8 0 1.333-0.533 1.333-1.333s-0.533-1.333-1.333-1.333h-1.867v-1.2c0-0.8-0.533-1.333-1.333-1.333s-1.333 0.533-1.333 1.333v1.2h-0.4c-2.133 0-3.867 1.733-3.867 3.867s1.733 3.867 3.867 3.867h3.333c0.667 0 1.2 0.533 1.2 1.2s-0.533 1.2-1.2 1.2h-4.933c-0.8 0-1.333 0.533-1.333 1.333s0.533 1.333 1.333 1.333h2v1.2c0 0.8 0.533 1.333 1.333 1.333s1.333-0.533 1.333-1.333v-1.2h0.4c2.133 0 3.867-1.733 3.867-3.867s-1.733-3.867-3.867-3.867z"></path>
</symbol>
<symbol id="icon-instagram" viewBox="0 0 32 32">
<path fill="none" stroke="#fff" style="stroke: var(--color1, #fff)" stroke-linejoin="round" stroke-linecap="round" stroke-miterlimit="4" stroke-width="2.1818" d="M22.666 2.666h-13.332c-0 0-0.001 0-0.001 0-3.682 0-6.666 2.985-6.666 6.666 0 0.001 0 0.001 0 0.002v-0 13.332c0 0 0 0.001 0 0.001 0 3.682 2.985 6.666 6.666 6.666 0.001 0 0.001 0 0.002 0h13.332c0 0 0.001 0 0.001 0 3.682 0 6.666-2.985 6.666-6.666 0-0 0-0.001 0-0.002v0-13.332c0-0 0-0.001 0-0.001 0-3.682-2.985-6.666-6.666-6.666-0 0-0.001 0-0.002 0h0z"></path>
<path fill="none" stroke="#fff" style="stroke: var(--color1, #fff)" stroke-linejoin="round" stroke-linecap="round" stroke-miterlimit="4" stroke-width="2.1818" d="M21.334 15.159c0.037 0.235 0.058 0.506 0.058 0.783 0 2.946-2.388 5.334-5.334 5.334-2.67 0-4.881-1.961-5.273-4.522l-0.004-0.030c-0.037-0.235-0.058-0.506-0.058-0.782 0-2.946 2.388-5.334 5.334-5.334 2.67 0 4.882 1.962 5.273 4.523l0.004 0.030z"></path>
<path fill="none" stroke="#fff" style="stroke: var(--color1, #fff)" stroke-linejoin="round" stroke-linecap="round" stroke-miterlimit="4" stroke-width="2.1818" d="M21.334 15.159c0.037 0.235 0.058 0.506 0.058 0.783 0 2.946-2.388 5.334-5.334 5.334-2.67 0-4.881-1.961-5.273-4.522l-0.004-0.030c-0.037-0.235-0.058-0.506-0.058-0.782 0-2.946 2.388-5.334 5.334-5.334 2.67 0 4.882 1.962 5.273 4.523l0.004 0.030zM23.334 8.666h0.015M23.334 8.666h0.015"></path>
</symbol>
<symbol id="icon-scroll-icon" viewBox="0 0 32 32">
<path d="M16.947 17.867c-0.124 0.125-0.271 0.224-0.434 0.292s-0.337 0.103-0.513 0.103-0.35-0.035-0.513-0.103c-0.162-0.068-0.31-0.167-0.434-0.292l-6.107-6.12c-0.124-0.125-0.271-0.224-0.434-0.292s-0.337-0.103-0.513-0.103c-0.176 0-0.35 0.035-0.513 0.103s-0.31 0.167-0.434 0.292c-0.248 0.25-0.388 0.588-0.388 0.94s0.139 0.69 0.388 0.94l6.12 6.12c0.75 0.749 1.767 1.17 2.827 1.17s2.077-0.421 2.827-1.17l6.12-6.12c0.246-0.248 0.385-0.584 0.387-0.933 0.001-0.175-0.033-0.349-0.099-0.512s-0.164-0.31-0.288-0.435c-0.124-0.125-0.271-0.224-0.434-0.292s-0.337-0.103-0.513-0.103c-0.176 0-0.35 0.035-0.513 0.103s-0.31 0.167-0.434 0.292l-6.107 6.12z"></path>
</symbol>
<symbol id="icon-spoon-icon-adv" viewBox="0 0 32 32">
<path d="M15.452 14.106c-0.783-0.95-1.177-2.116-1.177-3.282 0-4.324 5.181-8.642 10.362-8.642 2.86 0 5.181 2.321 5.181 5.182 0 5.182-4.318 10.364-8.646 10.364-1.166 0-2.332-0.394-3.281-1.177l-12.758 12.761c-0.675 0.675-1.77 0.675-2.445 0s-0.675-1.771 0-2.445l12.764-12.761z"></path>
</symbol>
<symbol id="icon-twitter" viewBox="0 0 32 32">
<path fill="none" stroke="#fff" style="stroke: var(--color1, #fff)" stroke-linejoin="round" stroke-linecap="round" stroke-miterlimit="4" stroke-width="2.4" d="M30.667 4c-1.2 0.856-2.591 1.552-4.084 2.013l-0.103 0.027c-1.101-1.262-2.712-2.054-4.508-2.054-3.299 0-5.973 2.674-5.973 5.973 0 0.029 0 0.057 0.001 0.086l-0-0.004v1.333c-0.11 0.003-0.24 0.005-0.37 0.005-2.33 0-4.529-0.561-6.469-1.554l0.080 0.037c-2.094-1.054-3.894-3.142-5.242-5.061 0 0-5.333 12.533 6.667 17.867-2.442 1.677-5.462 2.678-8.715 2.678-0.218 0-0.435-0.005-0.65-0.013l0.031 0.001c12 6.667 26.667 0 26.667-15.333 0-0.371-0.037-0.742-0.107-1.107 1.323-1.305 2.294-2.963 2.759-4.822l0.015-0.071z"></path>
</symbol>
<symbol id="icon-video-icon" viewBox="0 0 32 32">
<path d="M10.909 24v-15.273l14.545 7.636-14.545 7.636z"></path>
<path stroke-linejoin="miter" stroke-linecap="butt" stroke-miterlimit="4" stroke-width="0.7273" d="M31.636 16c0 8.636-7.001 15.636-15.636 15.636s-15.636-7.001-15.636-15.636c0-8.636 7.001-15.636 15.636-15.636s15.636 7.001 15.636 15.636z"></path>
</symbol>
<symbol id="icon-mastercard-icon" viewBox="0 0 47 32">
<path fill="#fafafa" style="fill: var(--color1, #fafafa)" d="M4.267 0.533h38.4c2.062 0 3.733 1.671 3.733 3.733v23.467c0 2.062-1.671 3.733-3.733 3.733h-38.4c-2.062 0-3.733-1.671-3.733-3.733v-23.467c0-2.062 1.671-3.733 3.733-3.733z"></path>
<path fill="#ed0006" style="fill: var(--color2, #ed0006)" d="M23.467 23.29c-1.704 1.462-3.915 2.345-6.331 2.345-5.39 0-9.76-4.396-9.76-9.818s4.37-9.818 9.76-9.818c2.416 0 4.627 0.883 6.331 2.345 1.704-1.462 3.915-2.345 6.331-2.345 5.391 0 9.76 4.395 9.76 9.818s-4.37 9.818-9.76 9.818c-2.416 0-4.627-0.883-6.331-2.345z"></path>
<path fill="#f9a000" style="fill: var(--color3, #f9a000)" d="M23.467 23.29c2.099-1.801 3.429-4.48 3.429-7.472s-1.331-5.672-3.429-7.472c1.704-1.462 3.915-2.345 6.331-2.345 5.391 0 9.76 4.395 9.76 9.818s-4.37 9.818-9.76 9.818c-2.416 0-4.627-0.883-6.331-2.345z"></path>
<path fill="#ff5e00" style="fill: var(--color4, #ff5e00)" d="M23.467 23.29c2.099-1.801 3.429-4.48 3.429-7.472s-1.331-5.672-3.429-7.472c-2.099 1.801-3.429 4.48-3.429 7.472s1.331 5.672 3.429 7.472z"></path>
<path fill="none" stroke="#fafafa" style="stroke: var(--color1, #fafafa)" stroke-linejoin="miter" stroke-linecap="butt" stroke-miterlimit="4" stroke-width="1.0667" d="M4.267 0.533h38.4c2.062 0 3.733 1.671 3.733 3.733v23.467c0 2.062-1.671 3.733-3.733 3.733h-38.4c-2.062 0-3.733-1.671-3.733-3.733v-23.467c0-2.062 1.671-3.733 3.733-3.733z"></path>
</symbol>
<symbol id="icon-ukraine-icon" viewBox="0 0 41 32">
<path fill="#ffd700" style="fill: var(--color5, #ffd700)" d="M40.745 1.355h-40.434v30.090h40.434v-30.090z"></path>
<path fill="#0057b7" style="fill: var(--color6, #0057b7)" d="M0.311 1.355h40.434v15.045h-40.434v-15.045z"></path>
</symbol>
</defs>
</svg>
